# xmcd
#
# Track frame offsets:
#	150
#	15564
#	27623
#	45711
#	63270
#	80898
#	93960
#	107668
#	125282
#	140845
#	159223
#
# Disc length: 2265 seconds
#
# Revision: 0
# Processed by: cddbd v1.5.1PL2 Copyright (c) Steve Scherf et al.
# Submitted via: EasyCDDAExtractor 4.5.0.2
#
DISCID=8d08d70b
DTITLE=Grupo Ayoah - Ainda Vou Te Conquistar
DYEAR=2006
DGENRE=Country
TTITLE0=Honey
TTITLE1=Um Grande Raio
TTITLE2=Só Você E Eu
TTITLE3=Cabeça Ae Vento
TTITLE4=Ha Um Longo Tempo Atrás
TTITLE5=Explosão
TTITLE6=Cowboy Equilibrado
TTITLE7=Aqui é Meu Lugar
TTITLE8=Complica
TTITLE9=Territorio Ayoah 2
TTITLE10=Sinfonia
EXTD=
EXTT0=
EXTT1=
EXTT2=
EXTT3=
EXTT4=
EXTT5=
EXTT6=
EXTT7=
EXTT8=
EXTT9=
EXTT10=
PLAYORDER=
